HIERARCHY
ROOT Hips
{
	OFFSET 0.000000 0.000000 0.000000
	CHANNELS 6 Xposition Yposition Zposition Xrotation Yrotation Zrotation
	JOINT LeftUpLeg_virtual
	{
		OFFSET 0.000000 0.000000 0.000000
		CHANNELS 3 Xrotation Yrotation Zrotation
		JOINT LeftUpLeg
		{
			OFFSET 15.427100 -6.655098 0.678600
			CHANNELS 3 Xrotation Yrotation Zrotation
			JOINT LeftLeg
			{
				OFFSET 4.081073 -39.591068 13.024000
				CHANNELS 3 Xrotation Yrotation Zrotation
				JOINT LeftFoot
				{
					OFFSET -4.081074 -37.707932 -15.979700
					CHANNELS 3 Xrotation Yrotation Zrotation
					JOINT LeftToeBase
					{
						OFFSET 5.346399 -15.068900 20.645000
						CHANNELS 3 Xrotation Yrotation Zrotation
						JOINT LeftToe_End
						{
							OFFSET 2.754700 0.931300 11.300900
							CHANNELS 3 Xrotation Yrotation Zrotation
							End Site
							{
								OFFSET 0 0 0
							}
						}
					}
				}
			}
		}
	}
	JOINT RightUpLeg_virtual
	{
		OFFSET 0.000000 0.000000 0.000000
		CHANNELS 3 Xrotation Yrotation Zrotation
		JOINT RightUpLeg
		{
			OFFSET -15.569500 -6.655098 0.678600
			CHANNELS 3 Xrotation Yrotation Zrotation
			JOINT RightLeg
			{
				OFFSET -4.081825 -39.591045 13.023800
				CHANNELS 3 Xrotation Yrotation Zrotation
				JOINT RightFoot
				{
					OFFSET 4.081824 -37.707954 -15.979600
					CHANNELS 3 Xrotation Yrotation Zrotation
					JOINT RightToeBase
					{
						OFFSET -5.346400 -15.068900 20.645000
						CHANNELS 3 Xrotation Yrotation Zrotation
						JOINT RightToe_End
						{
							OFFSET -2.754700 0.931300 11.300900
							CHANNELS 3 Xrotation Yrotation Zrotation
							End Site
							{
								OFFSET 0 0 0
							}
						}
					}
				}
			}
		}
	}
	JOINT Spine_virtual
	{
		OFFSET 0.000000 0.000000 0.000000
		CHANNELS 3 Xrotation Yrotation Zrotation
		JOINT Spine
		{
			OFFSET -0.279200 12.230698 -2.892100
			CHANNELS 3 Xrotation Yrotation Zrotation
			JOINT Spine1
			{
				OFFSET -0.232667 10.192268 -1.242267
				CHANNELS 3 Xrotation Yrotation Zrotation
				JOINT Spine1_split
				{
					OFFSET -0.232667 10.192268 -1.242267
					CHANNELS 3 Xrotation Yrotation Zrotation
					JOINT Spine2
					{
						OFFSET -0.232667 10.192268 -1.242267
						CHANNELS 3 Xrotation Yrotation Zrotation
						JOINT Neck_virtual
						{
							OFFSET 0.000000 0.000000 0.000000
							CHANNELS 3 Xrotation Yrotation Zrotation
							JOINT Neck
							{
								OFFSET -0.418800 17.814194 8.416900
								CHANNELS 3 Xrotation Yrotation Zrotation
								JOINT Head
								{
									OFFSET 0.000000 7.031097 3.806800
									CHANNELS 3 Xrotation Yrotation Zrotation
									JOINT HeadTop_End
									{
										OFFSET 0.000000 24.646606 12.978600
										CHANNELS 3 Xrotation Yrotation Zrotation
										End Site
										{
											OFFSET 0 0 0
										}
									}
								}
							}
						}
						JOINT LeftShoulder_virtual
						{
							OFFSET 0.000000 0.000000 0.000000
							CHANNELS 3 Xrotation Yrotation Zrotation
							JOINT LeftShoulder
							{
								OFFSET 8.476499 7.247704 -3.868750
								CHANNELS 3 Xrotation Yrotation Zrotation
								JOINT LeftShoulder_split
								{
									OFFSET 8.476499 7.247704 -3.868750
									CHANNELS 3 Xrotation Yrotation Zrotation
									JOINT LeftArm
									{
										OFFSET 9.308998 -2.777710 0.208600
										CHANNELS 3 Xrotation Yrotation Zrotation
										JOINT LeftForeArm
										{
											OFFSET 29.972298 0.000000 0.000000
											CHANNELS 3 Xrotation Yrotation Zrotation
											JOINT LeftHand
											{
												OFFSET 26.026505 0.000000 0.000000
												CHANNELS 3 Xrotation Yrotation Zrotation
												End Site
												{
													OFFSET 0 0 0
												}
											}
										}
									}
								}
							}
						}
						JOINT RightShoulder_virtual
						{
							OFFSET 0.000000 0.000000 0.000000
							CHANNELS 3 Xrotation Yrotation Zrotation
							JOINT RightShoulder
							{
								OFFSET -7.570500 7.247704 -3.868750
								CHANNELS 3 Xrotation Yrotation Zrotation
								JOINT RightShoulder_split
								{
									OFFSET -7.570500 7.247704 -3.868750
									CHANNELS 3 Xrotation Yrotation Zrotation
									JOINT RightArm
									{
										OFFSET -9.308998 -2.777710 0.208500
										CHANNELS 3 Xrotation Yrotation Zrotation
										JOINT RightForeArm
										{
											OFFSET -29.972300 0.000000 0.000000
											CHANNELS 3 Xrotation Yrotation Zrotation
											JOINT RightHand
											{
												OFFSET -26.026505 0.000000 0.000000
												CHANNELS 3 Xrotation Yrotation Zrotation
												End Site
												{
													OFFSET 0 0 0
												}
											}
										}
									}
								}
							}
						}
					}
				}
			}
		}
	}
}
MOTION
Frames: 7
Frame Time: 0.03333333
-0.035155 42.575989 -7.154060 0.000000 0.000000 0.000000 72.664504 -1.781225 -0.842620 1.181722 11.229021 3.084116 9.599000 4.426395 1.962208 -40.697392 6.521240 -5.457876 -28.160522 0.938298 -10.577263 0.000000 0.000000 0.000000 72.664504 -1.781225 -0.842620 -2.137068 -7.646664 -2.417164 13.244111 3.044407 -1.154799 -32.369974 -5.071976 4.868104 -41.950223 -1.853567 8.414823 0.000000 0.000000 0.000000 72.664504 -1.781225 -0.842620 0.751177 -0.153836 0.064438 1.989890 -0.361037 0.703952 0.000000 0.000000 0.000000 0.000000 0.000000 0.000000 1.989557 -0.369635 0.705793 -9.204230 -0.704416 3.164577 0.129149 2.292099 -4.360972 0.000000 0.000000 0.000000 1.989557 -0.369635 0.705793 1.107201 -1.022677 0.366518 0.000000 0.000000 0.000000 -53.198148 -52.390181 -60.733769 -0.000006 -9.465324 -0.000004 0.000000 0.000000 0.000000 1.989557 -0.369635 0.705793 1.721913 3.722436 14.170262 0.000000 0.000000 0.000000 -57.852945 62.510410 58.216325 0.000007 10.622217 -0.000013 0.000000 0.000000 0.000000 
-0.065516 42.662224 -7.182976 0.000000 0.000000 0.000000 72.720928 -1.786444 -0.839621 1.100379 11.196792 3.091096 9.516385 4.550948 1.994364 -40.721683 6.531003 -5.450833 -28.200861 0.916089 -10.433105 0.000000 0.000000 0.000000 72.720928 -1.786444 -0.839621 -2.223805 -7.619651 -2.388240 13.197967 2.953122 -1.145334 -32.376289 -5.063713 4.828817 -41.749767 -1.846916 8.483199 0.000000 0.000000 0.000000 72.720928 -1.786444 -0.839621 0.777901 -0.150121 0.044765 2.046987 -0.353058 0.686805 0.000000 0.000000 0.000000 0.000000 0.000000 0.000000 2.059591 -0.360989 0.690020 -9.236219 -0.710649 3.176450 0.030648 2.283026 -4.346892 0.000000 0.000000 0.000000 2.059591 -0.360989 0.690020 1.109420 -1.047178 0.617681 0.000000 0.000000 0.000000 -53.300201 -52.427234 -60.726105 -0.000000 -9.495818 -0.000001 0.000000 0.000000 0.000000 2.059591 -0.360989 0.690020 1.608451 4.068151 14.154882 0.000000 0.000000 0.000000 -56.074771 61.951653 56.389222 -0.000003 12.166846 -0.000009 0.000000 0.000000 0.000000 
-0.111342 42.769241 -7.208958 0.000000 0.000000 0.000000 72.788001 -1.768139 -0.798662 1.043083 11.124979 3.045758 9.324709 4.654587 2.067148 -40.682700 6.545855 -5.452815 -28.363677 0.878168 -10.190922 0.000000 0.000000 0.000000 72.788001 -1.768139 -0.798662 -2.336987 -7.570334 -2.388072 13.151957 2.851848 -1.152785 -32.367621 -5.054015 4.807389 -41.623453 -1.843328 8.505594 0.000000 0.000000 0.000000 72.788001 -1.768139 -0.798662 0.815478 -0.150417 -0.005167 2.128596 -0.354854 0.658855 0.000000 0.000000 0.000000 0.000000 0.000000 0.000000 2.179346 -0.360896 0.666010 -9.248162 -0.714647 3.184085 -0.052982 2.276826 -4.318975 0.000000 0.000000 0.000000 2.179346 -0.360896 0.666010 1.132589 -1.210562 1.194274 0.000000 0.000000 0.000000 -52.684446 -52.210560 -60.149726 -0.000003 -10.381179 -0.000000 0.000000 0.000000 0.000000 2.179346 -0.360896 0.666010 1.294685 4.985075 14.076848 0.000000 0.000000 0.000000 -51.857306 60.370546 52.223958 0.000002 15.798719 -0.000002 0.000000 0.000000 0.000000 
-0.172899 42.894165 -7.233383 0.000000 0.000000 0.000000 72.857280 -1.738016 -0.719975 1.028516 11.051566 2.957471 9.001631 4.679251 2.144777 -40.587593 6.541281 -5.466430 -28.501684 0.839825 -9.949367 0.000000 0.000000 0.000000 72.857280 -1.738016 -0.719975 -2.464737 -7.516679 -2.416716 13.098693 2.759313 -1.164104 -32.353626 -5.033598 4.787386 -41.541610 -1.846029 8.492959 0.000000 0.000000 0.000000 72.857280 -1.738016 -0.719975 0.860605 -0.155999 -0.084450 2.229975 -0.368383 0.618093 0.000000 0.000000 0.000000 0.000000 0.000000 0.000000 2.343000 -0.371418 0.631637 -9.245368 -0.722172 3.187861 -0.129918 2.246349 -4.258133 0.000000 0.000000 0.000000 2.343000 -0.371418 0.631637 1.173336 -1.417818 2.041882 0.000000 0.000000 0.000000 -51.809864 -51.949702 -59.390373 0.000000 -11.541091 0.000013 0.000000 0.000000 0.000000 2.343000 -0.371418 0.631637 0.820167 6.380148 13.917261 0.000000 0.000000 0.000000 -47.113422 58.088341 47.525385 0.000009 20.058001 -0.000013 0.000000 0.000000 0.000000 
-0.251492 43.047928 -7.276756 0.000000 0.000000 0.000000 72.958175 -1.685765 -0.648183 0.999078 11.000903 2.886170 8.549871 4.604008 2.220638 -40.476442 6.518871 -5.489726 -28.579805 0.798126 -9.688208 0.000000 0.000000 0.000000 72.958175 -1.685765 -0.648183 -2.629241 -7.407694 -2.418414 13.031316 2.607147 -1.187344 -32.361003 -5.012350 4.762993 -41.447961 -1.841292 8.455829 0.000000 0.000000 0.000000 72.958175 -1.685765 -0.648183 0.911582 -0.171912 -0.189867 2.349847 -0.402080 0.579622 0.000000 0.000000 0.000000 0.000000 0.000000 0.000000 2.548211 -0.401091 0.601895 -9.260927 -0.734819 3.195121 -0.291664 2.197758 -4.154162 0.000000 0.000000 0.000000 2.548211 -0.401091 0.601895 1.227707 -1.531620 3.079353 0.000000 0.000000 0.000000 -51.125134 -51.689523 -58.798974 -0.000009 -12.745204 0.000002 0.000000 0.000000 0.000000 2.548211 -0.401091 0.601895 0.225591 8.167537 13.717598 0.000000 0.000000 0.000000 -42.646632 55.303502 42.993299 0.000001 24.402744 -0.000005 0.000000 0.000000 0.000000 
-0.349261 43.238419 -7.354752 0.000000 0.000000 0.000000 73.136696 -1.604938 -0.577452 0.934411 10.919815 2.812962 7.913341 4.528500 2.319692 -40.380249 6.504406 -5.532638 -28.645410 0.739767 -9.311097 0.000000 0.000000 0.000000 73.136696 -1.604938 -0.577452 -2.849712 -7.234553 -2.392982 12.885615 2.379674 -1.225771 -32.452319 -4.992822 4.719985 -41.236734 -1.803918 8.388528 0.000000 0.000000 0.000000 73.136696 -1.604938 -0.577452 0.965152 -0.190679 -0.321329 2.478549 -0.439070 0.545993 0.000000 0.000000 0.000000 0.000000 0.000000 0.000000 2.784366 -0.433118 0.579358 -9.319131 -0.748967 3.190704 -0.521914 2.128010 -4.089549 0.000000 0.000000 0.000000 2.784366 -0.433118 0.579358 1.311952 -1.716129 4.262660 0.000000 0.000000 0.000000 -50.037529 -51.217659 -57.774350 0.000004 -14.652959 0.000002 0.000000 0.000000 0.000000 2.784366 -0.433118 0.579358 -0.446493 10.243896 13.474435 0.000000 0.000000 0.000000 -38.494646 52.132778 38.615383 -0.000004 28.874529 -0.000014 0.000000 0.000000 0.000000 
-0.476226 43.477135 -7.446728 0.000000 0.000000 0.000000 73.350064 -1.507102 -0.460678 0.970438 10.782196 2.645916 6.948669 4.532849 2.440916 -40.295449 6.463586 -5.520696 -28.575725 0.674559 -8.872435 0.000000 0.000000 0.000000 73.350064 -1.507102 -0.460678 -3.025730 -7.073026 -2.385142 12.525502 2.126496 -1.252976 -32.627752 -4.955182 4.644010 -40.797833 -1.731731 8.310474 0.000000 0.000000 0.000000 73.350064 -1.507102 -0.460678 1.031652 -0.201317 -0.495136 2.633910 -0.457498 0.506397 0.000000 0.000000 0.000000 0.000000 0.000000 0.000000 3.068062 -0.445780 0.553129 -9.399133 -0.756121 3.164493 -0.752225 2.062794 -4.123707 0.000000 0.000000 0.000000 3.068062 -0.445780 0.553129 1.434960 -2.147436 5.717647 0.000000 0.000000 0.000000 -48.544309 -50.502050 -56.295307 0.000001 -16.998261 -0.000015 0.000000 0.000000 0.000000 3.068062 -0.445780 0.553129 -1.152758 12.461030 13.201059 0.000000 0.000000 0.000000 -34.891390 48.824682 34.582908 -0.000005 33.170394 0.000007 0.000000 0.000000 0.000000 
